<svg width="36" height="30" viewBox="0 0 36 30" fill="none" xmlns="http://www.w3.org/2000/svg">
<path d="M34.6154 0H1.38462C1.01739 0 0.66521 0.158036 0.405544 0.43934C0.145879 0.720645 0 1.10218 0 1.5V27C0 27.7956 0.291757 28.5587 0.811089 29.1213C1.33042 29.6839 2.03479 30 2.76923 30H33.2308C33.9652 30 34.6696 29.6839 35.1889 29.1213C35.7082 28.5587 36 27.7956 36 27V1.5C36 1.10218 35.8541 0.720645 35.5945 0.43934C35.3348 0.158036 34.9826 0 34.6154 0ZM31.0552 3L18 15.9656L4.94481 3H31.0552ZM33.2308 27H2.76923V4.91063L17.0637 19.1062C17.3191 19.3603 17.6532 19.5012 18 19.5012C18.3468 19.5012 18.6809 19.3603 18.9363 19.1062L33.2308 4.91063V27Z" fill="black"/>
</svg>
