<svg width="32" height="32" viewBox="0 0 32 32" fill="none" xmlns="http://www.w3.org/2000/svg">
<path d="M30.8607 7.65631C31.223 6.48771 31.3392 5.25673 31.202 4.04098C31.0649 2.82524 30.6773 1.6511 30.0637 0.592612C29.9597 0.412402 29.81 0.262762 29.6298 0.158738C29.4496 0.0547136 29.2451 -2.73383e-05 29.037 1.93946e-05C27.6566 -0.00287012 26.2946 0.317151 25.0598 0.934514C23.8251 1.55188 22.7519 2.44947 21.9259 3.55557H18.3704C17.5444 2.44947 16.4712 1.55188 15.2365 0.934514C14.0017 0.317151 12.6397 -0.00287012 11.2593 1.93946e-05C11.0512 -2.73383e-05 10.8467 0.0547136 10.6665 0.158738C10.4863 0.262762 10.3366 0.412402 10.2326 0.592612C9.61903 1.6511 9.23145 2.82524 9.09427 4.04098C8.95709 5.25673 9.07329 6.48771 9.43556 7.65631C8.7033 8.93441 8.31105 10.3789 8.2963 11.8519V13.037C8.29879 15.0424 9.02677 16.9791 10.3458 18.4896C11.6649 20 13.4859 20.9822 15.4726 21.2548C14.6616 22.2925 14.2215 23.5719 14.2222 24.8889V26.0741H10.6667C9.72367 26.0741 8.81931 25.6995 8.15251 25.0327C7.48571 24.3659 7.11111 23.4615 7.11111 22.5185C7.11111 21.7403 6.95783 20.9697 6.66003 20.2508C6.36222 19.5318 5.92572 18.8785 5.37545 18.3283C4.82517 17.778 4.17191 17.3415 3.45294 17.0437C2.73397 16.7459 1.96339 16.5926 1.18519 16.5926C0.870854 16.5926 0.569398 16.7175 0.347133 16.9397C0.124867 17.162 0 17.4635 0 17.7778C0 18.0921 0.124867 18.3936 0.347133 18.6158C0.569398 18.8381 0.870854 18.963 1.18519 18.963C2.12818 18.963 3.03255 19.3376 3.69934 20.0044C4.36614 20.6712 4.74074 21.5755 4.74074 22.5185C4.74074 24.0902 5.36508 25.5975 6.4764 26.7088C7.58773 27.8201 9.09501 28.4444 10.6667 28.4444H14.2222V30.8148C14.2222 31.1291 14.3471 31.4306 14.5694 31.6529C14.7916 31.8751 15.0931 32 15.4074 32C15.7217 32 16.0232 31.8751 16.2455 31.6529C16.4677 31.4306 16.5926 31.1291 16.5926 30.8148V24.8889C16.5926 23.9459 16.9672 23.0415 17.634 22.3747C18.3008 21.7079 19.2052 21.3333 20.1481 21.3333C21.0911 21.3333 21.9955 21.7079 22.6623 22.3747C23.3291 23.0415 23.7037 23.9459 23.7037 24.8889V30.8148C23.7037 31.1291 23.8286 31.4306 24.0508 31.6529C24.2731 31.8751 24.5746 32 24.8889 32C25.2032 32 25.5047 31.8751 25.7269 31.6529C25.9492 31.4306 26.0741 31.1291 26.0741 30.8148V24.8889C26.0748 23.5719 25.6347 22.2925 24.8237 21.2548C26.8104 20.9822 28.6314 20 29.9505 18.4896C31.2695 16.9791 31.9975 15.0424 32 13.037V11.8519C31.9852 10.3789 31.593 8.93441 30.8607 7.65631ZM29.6296 13.037C29.6296 14.6087 29.0053 16.116 27.894 17.2273C26.7826 18.3386 25.2754 18.963 23.7037 18.963H16.5926C15.0209 18.963 13.5137 18.3386 12.4023 17.2273C11.291 16.116 10.6667 14.6087 10.6667 13.037V11.8519C10.6812 10.6667 11.036 9.51071 11.6889 8.52149C11.8106 8.36108 11.8894 8.1723 11.9179 7.97297C11.9464 7.77364 11.9237 7.57034 11.8519 7.38224C11.5431 6.58609 11.3946 5.73684 11.4147 4.88317C11.4347 4.0295 11.6231 3.18818 11.9689 2.40743C12.9388 2.51177 13.8729 2.83308 14.7017 3.34753C15.5306 3.86198 16.2331 4.55639 16.757 5.37928C16.8638 5.54625 17.0108 5.68377 17.1844 5.77928C17.3581 5.87478 17.5529 5.9252 17.7511 5.92594H22.5437C22.7426 5.92595 22.9384 5.87588 23.1129 5.78034C23.2874 5.6848 23.435 5.54688 23.5422 5.37928C24.0661 4.55632 24.7686 3.86185 25.5974 3.34739C26.4263 2.83293 27.3604 2.51166 28.3304 2.40743C28.6757 3.18838 28.8635 4.02979 28.8831 4.88346C28.9027 5.73714 28.7536 6.58628 28.4444 7.38224C28.3728 7.56854 28.3488 7.76978 28.3747 7.9677C28.4006 8.16562 28.4755 8.35394 28.5926 8.51557C29.2519 9.50479 29.612 10.6632 29.6296 11.8519V13.037Z" fill="black"/>
</svg>
